<svg width="24" height="24" viewBox="0 0 24 24" fill="none" xmlns="http://www.w3.org/2000/svg">
<path d="M8.99701 13.9849C9.00701 15.0889 8.11701 15.9929 7.01101 15.9999C5.90601 16.0089 5.00601 15.1199 5.00001 14.0159C4.99001 12.9109 5.87901 12.0109 6.98201 11.9999C8.08801 11.9929 8.99101 12.8829 8.99701 13.9849ZM8.01901 9.99891C6.91501 10.0069 6.01101 9.11891 6.00401 8.01191C5.99501 6.90891 6.88101 6.00791 7.98801 6.00091C9.09001 5.99091 9.99601 6.87791 10 7.98291C10.012 9.08991 9.12001 9.98891 8.01901 9.99891ZM16 5.98491C16.004 7.08691 15.119 7.99291 14.015 7.99991C12.909 8.00991 12.007 7.12091 12 6.01691C11.989 4.91091 12.878 4.01091 13.985 4.00191C15.086 3.99591 15.99 4.88291 16 5.98491V5.98491ZM4.00001 21.8319C8.58701 22.2119 6.94401 17.3399 11.188 17.2949L13.026 18.8289C13.484 24.3659 6.71101 25.6009 4.00001 21.8319ZM18.065 14.7169C19.492 12.4779 23.911 4.96891 23.911 4.96891C24.264 4.34591 23.482 3.69591 22.936 4.15591C22.936 4.15591 16.364 9.86991 14.425 11.6809C12.893 13.1129 12.886 13.7669 12.39 16.1279L14.07 17.5279C16.297 16.6129 16.938 16.4879 18.065 14.7169V14.7169ZM5.44301 19.5229C3.35901 17.7029 2.02301 15.0439 2.00001 12.0759C1.95601 6.56591 6.40601 2.04591 11.92 2.00091C15.758 1.97991 18.399 3.90591 18.416 5.44791L20.079 3.99191C19.069 1.76891 15.897 -0.0530929 11.903 -9.29068e-05C5.28001 0.0549071 -0.0519891 5.46591 1.09229e-05 12.0919C0.0230109 15.0039 1.08301 17.6619 2.82301 19.7269C3.78101 20.2189 4.94601 20.0559 5.44301 19.5229V19.5229ZM18.24 17.6169C19.299 19.5869 16.889 20.9869 14.695 21.6089C14.391 22.5209 13.892 23.3299 13.321 23.9199C18.576 23.3289 22.382 19.6159 19.587 16.0309C19.128 16.7159 18.69 17.2279 18.24 17.6169V17.6169Z" fill="#333333"/>
</svg>
