<svg width="24" height="20" viewBox="0 0 24 20" fill="none" xmlns="http://www.w3.org/2000/svg">
<path fill-rule="evenodd" clip-rule="evenodd" d="M21.826 7.00006H19.74C19.911 6.51306 20.002 6.04306 20.002 5.59006C20.002 3.26406 18.184 1.81406 15.978 2.01706C13.297 2.26406 11.46 5.72706 11 6.50106C10.473 5.63806 8.739 2.26306 6.019 2.00706C3.909 1.80806 2 3.18806 2 5.58906C2 8.69806 6.347 12.6731 11.001 17.2041C12.161 16.0771 13.286 14.9961 14.325 13.9611L15.295 15.8181C13.977 17.1201 12.526 18.5041 11.001 19.9991C4.837 13.9621 0 9.79706 0 5.59606C0 2.30206 2.462 0.0700623 5.674 6.23024e-05C7.837 -0.0089377 9.799 0.957062 11.001 2.95206C12.178 0.996062 14.147 0.0100623 16.254 0.0100623C19.318 0.0100623 22 2.12506 22 5.60506C22 6.06906 21.94 6.53306 21.826 7.00006V7.00006ZM10.732 11.0001C10.386 11.5981 9.74 12.0001 9 12.0001C7.896 12.0001 7 11.1041 7 10.0001C7 8.89606 7.896 8.00006 9 8.00006C9.74 8.00006 10.386 8.40206 10.732 9.00006H11.954L13.834 6.29006C13.974 6.08806 14.21 5.97506 14.456 5.99106C14.701 6.00706 14.92 6.15206 15.032 6.37106L17.302 10.8081L18.115 9.35806C18.239 9.13706 18.472 9.00006 18.726 9.00006H24V11.0001H19.487L17.728 13.9081C17.596 14.1271 17.355 14.2561 17.099 14.2451C16.844 14.2351 16.615 14.0851 16.501 13.8561L14.245 9.29706L13.256 10.7031C13.125 10.8891 12.911 11.0001 12.683 11.0001H10.732V11.0001Z" fill="#333333"/>
</svg>
