<svg width="24" height="20" viewBox="0 0 24 20" fill="none" xmlns="http://www.w3.org/2000/svg">
<path fill-rule="evenodd" clip-rule="evenodd" d="M22 4C23.104 4 24 4.896 24 6V18C24 19.104 23.104 20 22 20H2C0.896 20 0 19.104 0 18V6C0 4.896 0.896 4 2 4H7V2C7 0.896 7.896 0 9 0H15C16.104 0 17 0.896 17 2V4H22ZM22 6.5C22 6.224 21.776 6 21.5 6H2.5C2.224 6 2 6.224 2 6.5V17.5C2 17.776 2.224 18 2.5 18H21.5C21.776 18 22 17.776 22 17.5V6.5ZM13 11H16V13H13V16H11V13H8V11H11V8H13V11ZM14.5 2H9.5C9.224 2 9 2.224 9 2.5V4H15V2.5C15 2.224 14.776 2 14.5 2Z" fill="#333333"/>
</svg>
